# xmcd CD database file
#
# Track frame offsets:
#	150
#	15862
#	32415
#	43662
#	59085
#	79285
#	96826
#	115810
#	133742
#	148807
#	165242
#	185367
#
# Disc length: 2655 seconds
#
# Revision: 3
# Processed by: cddbd v1.4PL0 Copyright (c) Steve Scherf et al.
# Submitted via: CDex 1.50
#
DISCID=9a0a5d0c
DTITLE=Mark McGuinn - Mark McGuinn
DYEAR=2001
DGENRE=Country
TTITLE0=Mrs. Steven Rudy
TTITLE1=Heaven Must Be Missing You
TTITLE2=No Way
TTITLE3=That's A Plan
TTITLE4=If The World Was Mine
TTITLE5=One Of Their Own
TTITLE6=She Doesn't Dance
TTITLE7=Silver Platter
TTITLE8=All About The Ride
TTITLE9=Love Don't Float
TTITLE10=Busy Signal
TTITLE11=Done It Right
EXTD=2001 VFR Records YEAR: 2001
EXTT0=
EXTT1=
EXTT2=
EXTT3=
EXTT4=
EXTT5=
EXTT6=
EXTT7=
EXTT8=
EXTT9=
EXTT10=
EXTT11=
PLAYORDER=
